<svg xmlns="http://www.w3.org/2000/svg" width="33.801" height="27.001"><g data-name="Grupo 1340"><g data-name="Grupo 1338" fill="#006"><path data-name="Trazado 3763" d="M33.554 1.585v18.871a22.271 22.271 0 0 0-8.335 1.628q-1.134.456-2.218 1.018c-.721.376-1.429.785-2.119 1.234a27.619 27.619 0 0 1 6.206-5.076 14.216 14.216 0 0 1 4.02-1.645l-.04-15.858a18.208 18.208 0 0 1 2.486-.172Z"/><path data-name="Trazado 3764" d="m29.577.291.041 16.388c-2.558.9-6.95 3.35-11.966 9.979V8.815a30.692 30.692 0 0 1 7.321-6.579 14.535 14.535 0 0 1 4.6-1.947Zm-1.764 15.052V3.083c-1.747.535-4.864 2.044-8.536 6.308V22.06a32.372 32.372 0 0 1 4.736-4.431 20.329 20.329 0 0 1 3.8-2.29Z"/><path data-name="Trazado 3765" d="M16.15 8.815v17.843c-5.016-6.631-9.41-9.078-11.968-9.979L4.222.291a14.519 14.519 0 0 1 4.6 1.947 30.621 30.621 0 0 1 7.328 6.583Zm-1.628 13.247V9.395c-3.673-4.268-6.79-5.777-8.536-6.312v12.26a20.235 20.235 0 0 1 3.8 2.29 32.372 32.372 0 0 1 4.736 4.429Z"/><path data-name="Trazado 3766" d="M12.917 24.335q-1.036-.673-2.119-1.234T8.58 22.082a22.271 22.271 0 0 0-8.335-1.627V1.585a18.17 18.17 0 0 1 2.485.173l-.035 15.857a14.221 14.221 0 0 1 4.021 1.645 27.616 27.616 0 0 1 6.2 5.076Z"/></g><g data-name="Grupo 1339" fill="none" stroke="#006" stroke-linecap="round" stroke-linejoin="round" stroke-width=".49"><path data-name="Trazado 3767" d="m31.07 1.758.04 15.858a14.235 14.235 0 0 0-4.02 1.645 27.618 27.618 0 0 0-6.206 5.076q1.036-.673 2.119-1.234t2.218-1.018a22.278 22.278 0 0 1 8.335-1.628V1.585a18.17 18.17 0 0 0-2.486.173Z"/><path data-name="Trazado 3768" d="M29.621 16.678h0c-2.558.9-6.95 3.35-11.966 9.979"/><path data-name="Línea 128" d="m29.577.29.041 16.388"/><path data-name="Trazado 3769" d="M29.577.29h0Z"/><path data-name="Trazado 3770" d="M17.651 26.658V8.815a30.692 30.692 0 0 1 7.321-6.579 14.535 14.535 0 0 1 4.6-1.947"/><path data-name="Trazado 3771" d="M19.277 22.062V9.395h0c3.673-4.267 6.79-5.777 8.536-6.31v12.259a20.235 20.235 0 0 0-3.8 2.29 32.371 32.371 0 0 0-4.736 4.429Z"/><path data-name="Trazado 3772" d="m2.73 1.758-.035 15.857a14.221 14.221 0 0 1 4.021 1.645 27.616 27.616 0 0 1 6.2 5.076q-1.036-.673-2.119-1.234T8.58 22.084a22.271 22.271 0 0 0-8.335-1.628V1.585a18.17 18.17 0 0 1 2.485.173Z"/><path data-name="Trazado 3773" d="m4.223.29-.04 16.388h0c2.558.9 6.95 3.348 11.968 9.979"/><path data-name="Trazado 3774" d="M4.224.29h0Z"/><path data-name="Trazado 3775" d="M16.149 26.657V8.814a30.659 30.659 0 0 0-7.326-6.579A14.546 14.546 0 0 0 4.223.29"/><path data-name="Trazado 3776" d="M14.523 22.061V9.395h0c-3.673-4.268-6.79-5.777-8.536-6.312v12.259a20.235 20.235 0 0 1 3.8 2.29 32.372 32.372 0 0 1 4.736 4.429Z"/></g></g></svg>